<?xml version="1.0" encoding="UTF-8"?>
<svg id="Camada_1" data-name="Camada 1" xmlns="http://www.w3.org/2000/svg" viewBox="0 0 1800 394.97">
  <defs>
    <style>
      .cls-1 {
        fill: #fff;
      }
    </style>
  </defs>
  <path class="cls-1" d="M414.72,0H29.62C13.26,0,0,13.26,0,29.62v365.34l125.72-83.82c14.6-9.73,31.75-14.93,49.29-14.93h239.7c16.36,0,29.62-13.26,29.62-29.62V29.62C444.34,13.26,431.08,0,414.72,0ZM277.71,74.06v148.11h-74.06v-43.36c-11.58,4.09-24.04,6.33-37.03,6.33h0v-74.06h0c20.45,0,37.03-16.58,37.03-37.03h74.06Z"/>
  <g>
    <g>
      <path class="cls-1" d="M644.2,164.1c-3.7,6.85-9.5,12.37-17.39,16.56-7.89,4.19-17.85,6.29-29.86,6.29h-24.52v56.17h-29.34V96.82h53.86c11.32,0,20.96,1.96,28.92,5.87,7.96,3.91,13.94,9.29,17.92,16.14,3.98,6.85,5.97,14.6,5.97,23.26,0,7.83-1.85,15.16-5.55,22ZM613.71,157.71c3.91-3.7,5.87-8.91,5.87-15.61,0-14.25-7.96-21.38-23.89-21.38h-23.26v42.54h23.26c8.1,0,14.11-1.85,18.02-5.55Z"/>
      <path class="cls-1" d="M657.07,122.71v-25.89h48.36v146.28h-28.9v-120.4h-19.46Z"/>
    </g>
    <path class="cls-1" d="M985.14,153.7c4.57-8.86,10.77-15.68,18.62-20.46,7.84-4.77,16.6-7.16,26.29-7.16,8.46,0,15.86,1.71,22.2,5.11,6.34,3.41,11.42,7.71,15.24,12.89v-16.16h28.85v113.34h-28.85v-16.57c-3.68,5.32-8.77,9.72-15.24,13.2-6.48,3.48-13.95,5.22-22.4,5.22-9.55,0-18.24-2.45-26.09-7.37-7.85-4.91-14.05-11.83-18.62-20.77-4.57-8.93-6.85-19.2-6.85-30.79s2.28-21.62,6.85-30.48ZM1063.4,166.69c-2.73-4.98-6.41-8.8-11.05-11.46-4.64-2.66-9.62-3.99-14.93-3.99s-10.23,1.3-14.73,3.89c-4.5,2.59-8.15,6.38-10.95,11.36-2.8,4.98-4.19,10.88-4.19,17.7s1.4,12.79,4.19,17.9c2.79,5.11,6.48,9.04,11.05,11.76,4.57,2.73,9.44,4.09,14.63,4.09s10.3-1.33,14.93-3.99c4.64-2.66,8.32-6.48,11.05-11.46,2.73-4.98,4.09-10.94,4.09-17.9s-1.36-12.92-4.09-17.9Z"/>
    <path class="cls-1" d="M1162.11,131.29c6.04-3.47,12.94-5.21,20.72-5.21v30.61h-7.7c-9.16,0-16.07,2.15-20.72,6.46-4.65,4.3-6.98,11.8-6.98,22.49v57.47h-29.15v-115.36h29.15v17.91c3.75-6.11,8.64-10.9,14.68-14.37Z"/>
    <path class="cls-1" d="M1262.3,243.11l-37.16-46.65v46.65h-27.68V96.82h27.68v83.22l36.77-46.46h35.98l-48.23,54.95,48.63,54.56h-35.98Z"/>
    <path class="cls-1" d="M1412.49,193.19h-82.86c.68,8.18,3.55,14.6,8.59,19.23,5.04,4.64,11.25,6.96,18.62,6.96,10.64,0,18.21-4.57,22.71-13.71h30.89c-3.27,10.91-9.55,19.88-18.82,26.9-9.28,7.03-20.66,10.54-34.17,10.54-10.91,0-20.7-2.42-29.36-7.26-8.66-4.84-15.41-11.69-20.25-20.56-4.84-8.86-7.26-19.09-7.26-30.69s2.39-22.03,7.16-30.89c4.77-8.86,11.46-15.68,20.05-20.46,8.59-4.77,18.48-7.16,29.67-7.16s20.42,2.32,28.95,6.96c8.52,4.64,15.14,11.22,19.85,19.74,4.71,8.53,7.06,18.31,7.06,29.36,0,4.09-.27,7.77-.82,11.05ZM1383.64,173.96c-.14-7.37-2.8-13.26-7.98-17.7-5.18-4.43-11.53-6.65-19.03-6.65-7.09,0-13.06,2.15-17.9,6.44-4.84,4.3-7.81,10.26-8.9,17.9h53.81Z"/>
    <path class="cls-1" d="M1464.45,150.17v56.73c0,3.95.95,6.81,2.86,8.57,1.91,1.77,5.11,2.65,9.63,2.65h13.76v24.98h-18.63c-24.98,0-37.47-12.14-37.47-36.41v-56.52h-13.97v-24.35h13.97v-29h29.85v29h26.25v24.35h-26.25Z"/>
    <g>
      <path class="cls-1" d="M1517.06,113.67c-2.81-2.69-4.21-6.04-4.21-10.06s1.4-7.36,4.21-10.06c2.81-2.69,6.33-4.04,10.57-4.04s7.76,1.35,10.57,4.04c2.81,2.69,4.21,6.05,4.21,10.06s-1.41,7.37-4.21,10.06c-2.81,2.69-6.33,4.04-10.57,4.04s-7.77-1.35-10.57-4.04Z"/>
      <rect class="cls-1" x="1512.64" y="126.08" width="29.57" height="117.03"/>
    </g>
    <path class="cls-1" d="M1661.61,139.1c8.47,8.68,12.7,20.79,12.7,36.34v67.68h-29.15v-63.72c0-9.16-2.29-16.21-6.87-21.14-4.58-4.93-10.83-7.39-18.74-7.39s-14.4,2.47-19.05,7.39c-4.65,4.93-6.98,11.97-6.98,21.14v63.72h-29.15v-115.36h29.15v14.37c3.89-5,8.85-8.92,14.89-11.77,6.04-2.84,12.67-4.27,19.89-4.27,13.74,0,24.85,4.34,33.32,13.01Z"/>
    <path class="cls-1" d="M1758.62,130.8c6.03,3.15,10.78,7.22,14.24,12.22v-15.21h27.14v107.4c0,9.88-1.99,18.7-5.97,26.47-3.98,7.76-9.95,13.92-17.9,18.48-7.96,4.55-17.58,6.83-28.87,6.83-15.14,0-27.56-3.53-37.24-10.59-9.69-7.06-15.18-16.68-16.46-28.87h26.75c1.41,4.88,4.46,8.76,9.14,11.65,4.68,2.89,10.36,4.33,17.03,4.33,7.83,0,14.18-2.34,19.06-7.03,4.87-4.69,7.31-11.77,7.31-21.27v-16.55c-3.46,5-8.25,9.18-14.34,12.51-6.1,3.34-13.06,5-20.88,5-8.98,0-17.2-2.31-24.64-6.93-7.44-4.62-13.31-11.13-17.61-19.54-4.3-8.4-6.45-18.06-6.45-28.97s2.15-20.34,6.45-28.68c4.3-8.34,10.14-14.75,17.52-19.25,7.38-4.49,15.62-6.74,24.73-6.74,7.95,0,14.95,1.57,20.98,4.72ZM1769.01,164.29c-2.57-4.68-6.03-8.28-10.39-10.78-4.36-2.5-9.05-3.75-14.05-3.75s-9.62,1.22-13.86,3.66c-4.23,2.44-7.67,6-10.3,10.68-2.63,4.69-3.95,10.23-3.95,16.65s1.31,12.03,3.95,16.84c2.63,4.81,6.09,8.5,10.39,11.07,4.3,2.57,8.88,3.85,13.76,3.85s9.69-1.25,14.05-3.75c4.36-2.5,7.83-6.09,10.39-10.78,2.57-4.68,3.85-10.3,3.85-16.84s-1.28-12.16-3.85-16.84Z"/>
    <path class="cls-1" d="M963.66,96.82v146.28h-29.34v-95.15l-39.19,95.15h-22.21l-39.4-95.15v95.15h-29.34V96.82h33.32l46.53,108.77,46.53-108.77h33.11Z"/>
  </g>
</svg>